<?xml version="1.0" encoding="UTF-8"?>
<svg version="1.1" xmlns="http://www.w3.org/2000/svg" width="600" height="600">
<path d="M0 0 C20.46 0 40.92 0 62 0 C62 53.79 62 107.58 62 163 C150.77 163 239.54 163 331 163 C331 185.44 331 207.88 331 231 C242.23 231 153.46 231 62 231 C62 284.79 62 338.58 62 394 C41.54 394 21.08 394 0 394 C0 340.21 0 286.42 0 231 C-88.77 231 -177.54 231 -269 231 C-269 208.56 -269 186.12 -269 163 C-180.23 163 -91.46 163 0 163 C0 109.21 0 55.42 0 0 Z " fill="#F00002" transform="translate(269,103)"/>
<path d="M0 0 C63.69 0 127.38 0 193 0 C187.37641723 5.62358277 187.37641723 5.62358277 184.0234375 8.05859375 C182.90859985 8.87372437 182.90859985 8.87372437 181.77124023 9.70532227 C180.98048096 10.27694092 180.18972168 10.84855957 179.375 11.4375 C177.66525707 12.68474847 175.95562474 13.93214856 174.24609375 15.1796875 C173.37452637 15.81358398 172.50295898 16.44748047 171.60498047 17.10058594 C168.32387047 19.49299791 165.05834276 21.90607698 161.79345703 24.32055664 C154.15576628 29.96769897 146.47838313 35.55654746 138.76928711 41.10571289 C133.31893063 45.0339888 127.90316826 49.00712036 122.5 53 C115.6229644 58.08205078 108.70966917 63.11002797 101.76953125 68.10546875 C96.31916162 72.03392016 90.90325984 76.00705268 85.5 80 C78.6229644 85.08205078 71.70966917 90.11002797 64.76953125 95.10546875 C59.31916162 99.03392016 53.90325984 103.00705268 48.5 107 C41.63512237 112.07306617 34.73746998 117.09705087 27.8046875 122.0769043 C23.75111915 124.99398744 19.72279297 127.94098901 15.71875 130.92578125 C14.84734375 131.57417969 13.9759375 132.22257813 13.078125 132.890625 C11.38756848 134.15085804 9.69995442 135.41505005 8.015625 136.68359375 C7.25765625 137.24820313 6.4996875 137.8128125 5.71875 138.39453125 C5.04779297 138.89831299 4.37683594 139.40209473 3.68554688 139.92114258 C2 141 2 141 0 141 C0 94.47 0 47.94 0 0 Z " fill="#082B6F" transform="translate(341,103)"/>
<path d="M0 0 C2.75313615 1.37656808 4.97959689 2.58792242 7.44140625 4.328125 C8.0974585 4.79081787 8.75351074 5.25351074 9.42944336 5.73022461 C10.4853064 6.48251343 10.4853064 6.48251343 11.5625 7.25 C12.67927124 8.04192749 12.67927124 8.04192749 13.81860352 8.84985352 C20.21162318 13.40089562 26.53262811 18.04723612 32.84008789 22.71582031 C38.19998413 26.68176282 43.58776869 30.60582633 49 34.5 C56.00225341 39.53993609 62.95613449 44.64213527 69.89453125 49.76953125 C75.23857821 53.71415511 80.60918549 57.61958115 86 61.5 C96.19356463 68.84003533 106.29401627 76.30454606 116.39550781 83.77050781 C125.63804661 90.59965419 134.9038828 97.3920693 144.23071289 104.10571289 C150.47636155 108.60718564 156.67590941 113.16925664 162.86376953 117.74975586 C166.89569641 120.72974894 170.94270007 123.68476665 175.0234375 126.59765625 C175.83748047 127.17966797 176.65152344 127.76167969 177.49023438 128.36132812 C179.03289108 129.46178184 180.57829194 130.55840316 182.12695312 131.65039062 C182.82498047 132.14861328 183.52300781 132.64683594 184.2421875 133.16015625 C184.8491748 133.58949463 185.45616211 134.01883301 186.08154297 134.46118164 C188.55682133 136.44663335 190.75622846 138.75622846 193 141 C129.31 141 65.62 141 0 141 C0 94.47 0 47.94 0 0 Z " fill="#082B6F" transform="translate(341,356)"/>
<path d="M0 0 C63.69 0 127.38 0 193 0 C193 46.53 193 93.06 193 141 C189.33584834 139.16792417 186.16961399 137.07965378 182.875 134.6875 C182.26809326 134.25018555 181.66118652 133.81287109 181.03588867 133.36230469 C179.71589484 132.41059229 178.39683919 131.45757762 177.07861328 130.50341797 C174.9706226 128.97875193 172.85879582 127.45953566 170.74609375 125.94140625 C162.15652513 119.7624585 153.61644051 113.51978935 145.10668945 107.23144531 C139.76230525 103.2864035 134.39131488 99.38061369 129 95.5 C121.99784758 90.45992181 115.04386744 85.35786615 108.10546875 80.23046875 C102.76142179 76.28584489 97.39081451 72.38041885 92 68.5 C81.80643537 61.15996467 71.70598373 53.69545394 61.60449219 46.22949219 C52.3691376 39.4056541 43.10996215 32.61929849 33.79125977 25.90966797 C28.12797929 21.82702607 22.49478737 17.70478458 16.875 13.5625 C16.10542969 12.9953125 15.33585937 12.428125 14.54296875 11.84375 C13.07789908 10.76220642 11.61398463 9.6790958 10.15136719 8.59423828 C8.66038929 7.48937154 7.1660058 6.38909139 5.66894531 5.29248047 C4.93514648 4.75123535 4.20134766 4.20999023 3.4453125 3.65234375 C2.78289551 3.16628662 2.12047852 2.68022949 1.43798828 2.17944336 C0.96345215 1.79022705 0.48891602 1.40101074 0 1 C0 0.67 0 0.34 0 0 Z " fill="#082B6F" transform="translate(66,103)"/>
<path d="M0 0 C63.69 0 127.38 0 193 0 C187.37641723 5.62358277 187.37641723 5.62358277 184.20703125 7.875 C183.50392822 8.37829834 182.8008252 8.88159668 182.07641602 9.40014648 C181.32932373 9.92809814 180.58223145 10.4560498 179.8125 11 C178.19264523 12.15746377 176.57285535 13.31501836 174.953125 14.47265625 C174.12876953 15.05934082 173.30441406 15.64602539 172.45507812 16.25048828 C168.64665385 18.96440717 164.85377921 21.69970297 161.0625 24.4375 C160.32362549 24.97052734 159.58475098 25.50355469 158.82348633 26.05273438 C152.55331437 30.58326425 146.3270112 35.17198428 140.10571289 39.76928711 C134.76164238 43.71407149 129.39090687 47.61951467 124 51.5 C114.61219227 58.25983749 105.30303505 65.12417344 96 72 C85.9598876 79.42059673 75.90202492 86.81196039 65.76928711 94.10571289 C60.31893063 98.0339888 54.90316826 102.00712036 49.5 106 C42.63429294 111.07367911 35.73517798 116.0973635 28.80249023 121.07910156 C24.76359919 123.98649704 20.74733778 126.92101873 16.75390625 129.890625 C15.88701172 130.53451172 15.02011719 131.17839844 14.12695312 131.84179688 C12.44991953 133.08967336 10.77533167 134.34084517 9.10351562 135.59570312 C8.34876953 136.15708984 7.59402344 136.71847656 6.81640625 137.296875 C6.15068604 137.79541992 5.48496582 138.29396484 4.79907227 138.80761719 C3 140 3 140 0 141 C0 94.47 0 47.94 0 0 Z " fill="#082B6F" transform="translate(0,345)"/>
<path d="M0 0 C0 39.27 0 78.54 0 119 C-56.43 119 -112.86 119 -171 119 C-165.37865212 113.37865212 -165.37865212 113.37865212 -162.1640625 111.23046875 C-161.44130127 110.74239746 -160.71854004 110.25432617 -159.97387695 109.75146484 C-159.19874756 109.23535645 -158.42361816 108.71924805 -157.625 108.1875 C-155.92252529 107.03872578 -154.22073289 105.88893991 -152.51953125 104.73828125 C-151.1749585 103.83070068 -151.1749585 103.83070068 -149.80322266 102.90478516 C-144.94413789 99.6030451 -140.12997775 96.23702351 -135.3125 92.875 C-128.88810333 88.39734223 -122.4590832 83.92749534 -116 79.5 C-109.47917357 75.02979626 -102.98744488 70.51849274 -96.5 66 C-89.39454817 61.05106662 -82.27868322 56.11871995 -75.13671875 51.22265625 C-69.23933165 47.17495879 -63.36945335 43.08806284 -57.5 39 C-50.40188827 34.05617899 -43.29385582 29.12820747 -36.15869141 24.23803711 C-29.04384118 19.35560136 -21.96755467 14.41764612 -14.890625 9.48046875 C-1.28821332 0 -1.28821332 0 0 0 Z " fill="#082B6F" transform="translate(259,378)"/>
<path d="M0 0 C0 39.27 0 78.54 0 119 C-56.43 119 -112.86 119 -171 119 C-168.29503618 116.29503618 -166.31225982 114.37511117 -163.26171875 112.328125 C-162.53573486 111.83683105 -161.80975098 111.34553711 -161.06176758 110.83935547 C-159.88650513 110.05262451 -159.88650513 110.05262451 -158.6875 109.25 C-156.97594375 108.09205989 -155.26503507 106.93316216 -153.5546875 105.7734375 C-152.65202148 105.16209961 -151.74935547 104.55076172 -150.81933594 103.92089844 C-145.95826097 100.60890174 -141.13658253 97.24054602 -136.3125 93.875 C-129.88802779 89.3974495 -123.45908408 84.92749594 -117 80.5 C-110.47917357 76.02979626 -103.98744488 71.51849274 -97.5 67 C-90.39454817 62.05106662 -83.27868322 57.11871995 -76.13671875 52.22265625 C-70.23933165 48.17495879 -64.36945335 44.08806284 -58.5 40 C-52.01255384 35.48150637 -45.52073678 30.97033588 -39 26.5 C-32.29405932 21.90148843 -25.61318579 17.26731139 -18.9375 12.625 C-17.96103516 11.94630859 -16.98457031 11.26761719 -15.97851562 10.56835938 C-11.92473414 7.74724123 -7.87869325 4.92071258 -3.87890625 2.0234375 C-1 0 -1 0 0 0 Z " fill="#082B6F" transform="translate(600,136)"/>
<path d="M0 0 C6.52470757 4.15208663 12.92192919 8.2555013 19.1875 12.75 C20.66739893 13.80288471 22.1478808 14.85495048 23.62890625 15.90625 C24.36254395 16.42703125 25.09618164 16.9478125 25.85205078 17.484375 C29.08970413 19.76891149 32.35505614 22.01202839 35.625 24.25 C42.27211509 28.80178317 48.8896316 33.39502426 55.5 38 C61.98740076 42.51855618 68.47919644 47.0297636 75 51.5 C82.5298675 56.66198464 90.02038802 61.87995897 97.51171875 67.09765625 C102.9961033 70.91571524 108.48827642 74.72152283 114 78.5 C121.52031536 83.65543632 129.00146715 88.86660012 136.4831543 94.07788086 C142.24729665 98.09086708 148.02124718 102.08874473 153.8125 106.0625 C155.06904133 106.92573626 156.32555325 107.78901532 157.58203125 108.65234375 C159.78659029 110.16709115 161.99247924 111.6798301 164.19921875 113.19140625 C165.12347656 113.82949219 166.04773438 114.46757812 167 115.125 C167.78375 115.66382813 168.5675 116.20265625 169.375 116.7578125 C169.91125 117.16773438 170.4475 117.57765625 171 118 C171 118.33 171 118.66 171 119 C114.57 119 58.14 119 0 119 C0 79.73 0 40.46 0 0 Z " fill="#082B6F" transform="translate(0,136)"/>
<path d="M0 0 C56.43 0 112.86 0 171 0 C171 39.27 171 78.54 171 119 C158.72284644 111.18726592 158.72284644 111.18726592 153.3125 107.25 C148.43735024 103.72879668 143.525794 100.27083849 138.5625 96.875 C131.85236882 92.28223619 125.17182622 87.64822948 118.5 83 C112.01262148 78.48141219 105.52080332 73.97023624 99 69.5 C91.4701325 64.33801536 83.97961198 59.12004103 76.48828125 53.90234375 C71.0038967 50.08428476 65.51172358 46.27847717 60 42.5 C53.47919585 38.02976319 46.98745393 33.51848061 40.5 29 C33.80383129 24.33630386 27.10245218 19.68097569 20.375 15.0625 C19.7459375 14.63018066 19.116875 14.19786133 18.46875 13.75244141 C15.36052212 11.6171741 12.24864959 9.48742965 9.1328125 7.36328125 C7.92182296 6.53393015 6.71088309 5.70450652 5.5 4.875 C4.4378125 4.15054687 3.375625 3.42609375 2.28125 2.6796875 C1.5284375 2.12539063 0.775625 1.57109375 0 1 C0 0.67 0 0.34 0 0 Z " fill="#082B6F" transform="translate(429,345)"/>
<path d="M0 0 C1.16003138 6.04437403 2.05925538 12.06133282 0 18 C-4.1486394 23.18278133 -10.5061446 26.18082859 -16.203125 29.37841797 C-20.85469163 32.07531964 -25.21578233 35.17859452 -29.625 38.25 C-31.48028342 39.51780439 -33.33708489 40.78338985 -35.1953125 42.046875 C-36.14051758 42.69076172 -37.08572266 43.33464844 -38.05957031 43.99804688 C-44.26275523 48.22140426 -50.46932514 52.43978419 -56.67553711 56.65869141 C-66.22250762 63.14936128 -75.76145988 69.6517429 -85.29833984 76.15722656 C-90.78407213 79.89898576 -96.27079689 83.63928954 -101.75732422 87.37988281 C-106.3033764 90.47935395 -110.84921034 93.57914403 -115.39453125 96.6796875 C-126.14601773 104.01307134 -136.90352706 111.33751334 -147.66748047 118.65258789 C-153.6716379 122.73372049 -159.67286993 126.81898225 -165.66235352 130.92163086 C-167.50178707 132.17494421 -169.34730127 133.41938273 -171.19897461 134.65454102 C-175.41615643 137.47654774 -179.47090568 140.32865479 -183.3515625 143.6015625 C-196.501245 154.26219252 -209.78804759 153.29908803 -226 152 C-222.19001 147.91426896 -218.16013649 144.89042444 -213.4921875 141.84375 C-212.37966866 141.10697525 -212.37966866 141.10697525 -211.24467468 140.35531616 C-209.63564993 139.2905007 -208.02490199 138.2282855 -206.41262817 137.168396 C-202.02379955 134.28290466 -197.64774276 131.37812666 -193.26953125 128.4765625 C-192.3525798 127.86966583 -191.43562836 127.26276917 -190.4908905 126.63748169 C-180.13852087 119.78023235 -169.85027817 112.82860382 -159.5625 105.875 C-155.92619516 103.41865751 -152.28944085 100.96298173 -148.65234375 98.5078125 C-147.79665802 97.93019165 -146.94097229 97.3525708 -146.05935669 96.75744629 C-139.59710877 92.39755456 -133.11826627 88.06359089 -126.625 83.75 C-116.94682884 77.31843587 -107.31356531 70.82165385 -97.6875 64.3125 C-96.91477753 63.78999664 -96.14205505 63.26749329 -95.34591675 62.72915649 C-92.12646578 60.55211359 -88.90707901 58.37497579 -85.6877594 56.19773865 C-33.04850298 20.60065133 -33.04850298 20.60065133 -13.29199219 7.52783203 C-11.6762204 6.45076558 -10.06816493 5.362079 -8.46582031 4.26513672 C-7.65467773 3.71229004 -6.84353516 3.15944336 -6.0078125 2.58984375 C-5.28480957 2.09218506 -4.56180664 1.59452637 -3.81689453 1.08178711 C-2 0 -2 0 0 0 Z " fill="#F10001" transform="translate(259,345)"/>
<path d="M0 0 C1.66913556 15.78091804 1.66913556 15.78091804 -2.02734375 20.6953125 C-4.91846721 22.74440143 -7.84814904 24.38316669 -11 26 C-12.78579472 27.16487947 -14.55635081 28.35339001 -16.3125 29.5625 C-17.31152344 30.2225 -18.31054688 30.8825 -19.33984375 31.5625 C-24.04843659 34.68457466 -28.70916125 37.87705449 -33.375 41.0625 C-34.79292847 42.03038452 -34.79292847 42.03038452 -36.23950195 43.01782227 C-38.18940122 44.34912151 -40.13918844 45.68058486 -42.08886719 47.01220703 C-46.72419492 50.17732263 -51.36217539 53.33854472 -56 56.5 C-61.46522512 60.22600358 -66.930257 63.95228955 -72.39453125 67.6796875 C-83.14904083 75.01513334 -93.91026571 82.34061413 -104.67626953 89.65917969 C-114.2229838 96.1497046 -123.76170226 102.65190823 -133.29833984 109.15722656 C-136.94684959 111.64583596 -140.59584133 114.13373807 -144.24487305 116.62158203 C-146.07580622 117.86989393 -147.90669841 119.11826595 -149.73754883 120.36669922 C-154.39468901 123.5423051 -159.0523554 126.71713471 -163.7109375 129.890625 C-164.64873047 130.5312085 -165.58652344 131.17179199 -166.55273438 131.83178711 C-168.42552379 133.10466829 -170.30441726 134.36861716 -172.18945312 135.62329102 C-176.28697371 138.365315 -180.21201001 141.08880781 -183.8828125 144.38671875 C-196.17081561 155.00718211 -210.64526816 153.07213215 -226 152 C-222.92800443 148.70099828 -219.66315349 146.29214036 -215.90234375 143.81640625 C-215.29269775 143.41277359 -214.68305176 143.00914093 -214.05493164 142.59327698 C-212.72232325 141.71151571 -211.38835195 140.83181157 -210.05319214 139.95391846 C-206.35177426 137.51962234 -202.66093932 135.06935482 -198.96875 132.62109375 C-198.17653549 132.09632446 -197.38432098 131.57155518 -196.56809998 131.03088379 C-186.65117685 124.45511782 -176.79670952 117.78682572 -166.9375 111.125 C-155.85210632 103.63823144 -144.76731236 96.15190722 -133.625 88.75 C-123.94682377 82.31844357 -114.31356524 75.8216538 -104.6875 69.3125 C-103.91477753 68.78999664 -103.14205505 68.26749329 -102.34591675 67.72915649 C-99.12646578 65.55211359 -95.90707901 63.37497579 -92.6877594 61.19773865 C-82.69189277 54.43807369 -72.69077508 47.68619579 -62.6875 40.9375 C-61.77007019 40.31849823 -60.85264038 39.69949646 -59.90740967 39.06173706 C-48.46837134 31.34493758 -37.01670747 23.64865662 -25.51782227 16.02124023 C-19.16301069 11.7998339 -12.86483487 7.50158846 -6.63793945 3.09326172 C-2.21562683 0 -2.21562683 0 0 0 Z " fill="#F10001" transform="translate(600,103)"/>
<path d="M0 0 C16.55732799 -1.50973632 29.97451226 -2.43798333 43.56982422 8.4597168 C45.07754476 9.72683014 46.57155042 11.01051063 48.04882812 12.31298828 C50.5108823 14.44171631 53.12865824 16.19582281 55.875 17.9375 C61.34908507 21.55116176 66.77054899 25.23877815 72.1875 28.9375 C80.28607838 34.46659125 88.38980734 39.98795652 96.5 45.5 C107.10593063 52.70958531 117.70410009 59.93047589 128.29833984 67.15722656 C132.86509728 70.27216286 137.4325807 73.3860343 142 76.5 C147.46519426 80.22604886 152.93025699 83.95228954 158.39453125 87.6796875 C168.09141151 94.29374455 177.79283719 100.90104203 187.5 107.5 C190.62555766 109.62522352 193.75104337 111.75055277 196.87646484 113.87597656 C198.97823172 115.30519118 201.08012198 116.73422439 203.18212891 118.16308594 C206.22624181 120.23276183 209.26947998 122.3037177 212.3125 124.375 C213.23160156 124.99955078 214.15070313 125.62410156 215.09765625 126.26757812 C215.9484375 126.84701172 216.79921875 127.42644531 217.67578125 128.0234375 C218.41739502 128.52794434 219.15900879 129.03245117 219.9230957 129.55224609 C220.60847412 130.03000488 221.29385254 130.50776367 222 131 C222.74113037 131.46913818 223.48226074 131.93827637 224.24584961 132.42163086 C226 134 226 134 226.45410156 135.99291992 C226.4331543 136.73131104 226.41220703 137.46970215 226.390625 138.23046875 C226.37773438 139.03291016 226.36484375 139.83535156 226.3515625 140.66210938 C226.30128906 141.91217773 226.30128906 141.91217773 226.25 143.1875 C226.23195313 144.03248047 226.21390625 144.87746094 226.1953125 145.74804688 C226.14820586 147.83251573 226.07646233 149.91640144 226 152 C221.51230628 150.46643942 217.88391602 148.0094636 214.046875 145.29296875 C212.61459742 144.29380499 211.18161643 143.29564903 209.74804688 142.29833984 C208.59888794 141.49731842 208.59888794 141.49731842 207.42651367 140.68011475 C203.12755139 137.70351914 198.78948834 134.78499983 194.453125 131.86328125 C193.08468445 130.94045853 193.08468445 130.94045853 191.68859863 129.99899292 C189.81947415 128.73883032 187.95012852 127.47899568 186.08056641 126.21948242 C183.23936276 124.30533358 180.39892041 122.39005925 177.55859375 120.47460938 C166.77883926 113.2049173 166.77883926 113.2049173 155.96875 105.98046875 C147.98244736 100.66783518 140.04185511 95.28711672 132.09259033 89.91931152 C113.39041971 77.28750121 113.39041971 77.28750121 94.625 64.75 C83.38561815 57.28100166 72.20587142 49.72459142 61.03027344 42.16064453 C52.08671219 36.10822719 43.13346876 30.07066275 34.16796875 24.05078125 C31.20547019 22.05973815 28.24315955 20.06841579 25.28091431 18.07699585 C23.35119261 16.78073989 21.42067651 15.48566573 19.48934937 14.19180298 C16.7903435 12.38348222 14.09412538 10.5710743 11.3984375 8.7578125 C10.59081467 8.21832474 9.78319183 7.67883698 8.95109558 7.1230011 C8.20845963 6.62237656 7.46582367 6.12175201 6.70068359 5.60595703 C6.05505463 5.1728421 5.40942566 4.73972717 4.74423218 4.29348755 C2.98737284 2.99063595 1.50360804 1.58469647 0 0 Z " fill="#F10001" transform="translate(374,345)"/>
<path d="M0 0 C3.48577829 1.28485895 6.39328148 2.78297842 9.4453125 4.89453125 C10.78057983 5.81117554 10.78057983 5.81117554 12.14282227 6.74633789 C13.12694092 7.42817139 14.11105957 8.11000488 15.125 8.8125 C17.3651745 10.35000842 19.60605361 11.88645281 21.84765625 13.421875 C22.46634079 13.84630386 23.08502533 14.27073273 23.72245789 14.70802307 C32.96741385 21.04449051 42.26869476 27.29802747 51.5625 33.5625 C52.5064563 34.19906525 53.4504126 34.83563049 54.42297363 35.4914856 C64.72301337 42.4371447 75.02829896 49.37398052 85.375 56.25 C95.05305076 62.68174807 104.68643276 69.17834485 114.3125 75.6875 C115.08522247 76.21000336 115.85794495 76.73250671 116.65408325 77.27084351 C119.87353422 79.44788641 123.09292099 81.62502421 126.3122406 83.80226135 C136.30810716 90.56192627 146.30919223 97.31385278 156.3125 104.0625 C157.23292084 104.68349579 158.15334167 105.30449158 159.10165405 105.94430542 C169.42423425 112.90762202 179.75534964 119.85694627 190.125 126.75 C197.86262923 131.89638117 205.58459235 137.06530521 213.2802124 142.27429199 C214.41764381 143.04361334 215.55585655 143.81178088 216.69488525 144.57873535 C218.25717709 145.63118389 219.81617947 146.68851054 221.375 147.74609375 C222.26960937 148.35122803 223.16421875 148.9563623 224.0859375 149.57983398 C224.71757812 150.04848877 225.34921875 150.51714355 226 151 C226 151.33 226 151.66 226 152 C195.79084358 154.31578791 195.79084358 154.31578791 184.35644531 144.82446289 C183.10851711 143.72974158 181.87435657 142.61906004 180.65673828 141.49072266 C178.37742376 139.43980983 175.89831647 137.82772958 173.3125 136.1875 C167.77617175 132.53171803 162.2914178 128.8037426 156.8125 125.0625 C148.71393724 119.53338591 140.61019261 114.01204344 132.5 108.5 C121.89406937 101.29041469 111.29589991 94.06952411 100.70166016 86.84277344 C96.13490272 83.72783713 91.56741076 80.61397822 87 77.5 C85.16666322 76.25000505 83.33332989 75.00000505 81.5 73.75 C80.5925 73.13125 79.685 72.5125 78.75 71.875 C70.5 66.25 70.5 66.25 67.75073242 64.37548828 C65.91497145 63.12384048 64.07919668 61.87221292 62.2434082 60.62060547 C57.69710508 57.52098153 53.15103204 54.42102131 48.60546875 51.3203125 C46.79948966 50.08852628 44.99350006 48.85675547 43.1875 47.625 C42.29861084 47.01865723 41.40972168 46.41231445 40.49389648 45.78759766 C35.43437598 42.33753469 30.37135446 38.89268334 25.3046875 35.453125 C24.17032452 34.68278621 23.03596578 33.91244119 21.90161133 33.14208984 C19.73020867 31.66751494 17.55806342 30.19405483 15.38549805 28.72119141 C13.43903972 27.39952802 11.49849714 26.06909227 9.56518555 24.72827148 C7.0907058 23.01170593 7.0907058 23.01170593 4.74145508 21.72680664 C2.8046875 20.58984375 2.8046875 20.58984375 0 18 C-0.81240258 14.84276742 -0.66964326 11.91964851 -0.4375 8.6875 C-0.40591797 7.85154297 -0.37433594 7.01558594 -0.34179688 6.15429688 C-0.2596788 4.10134494 -0.13412595 2.05021102 0 0 Z " fill="#F10001" transform="translate(0,103)"/>
</svg>
