<svg xmlns="http://www.w3.org/2000/svg" version="1.1" xmlns:xlink="http://www.w3.org/1999/xlink" xmlns:svgjs="http://svgjs.dev/svgjs" width="100%" height="100%" viewBox="0 0 1000 600"><rect width="1000" height="600" x="0" y="0" fill="#ffffff"/><g><circle r="166.66666666666666" cx="298.1868235270182" cy="320.4090601581062" fill="#959525db" transform="matrix(0.950424326407642,0,0,0.950424326407642,0,-4.52460167824384)"/><path d="M236.62468047666692 338.7181548875277L236.62468047666692 302.1000111308857Q236.62468047666692 288.5361803586434 240.32008947963078 279.0876914306108Q244.01549848259467 269.63920250257814 249.85256497591257 263.29821659976517Q255.6896314692305 256.91523741282754 262.82848977041067 253.38780154636206Q270.0093413557155 249.86036567989655 276.9382332362727 248.09664774666382Q283.86712511683 246.29093652930646 289.87216474664626 245.87100368806057Q295.835211092338 245.4090775626901 299.2366671064297 245.4090775626901L299.2366671064297 245.4090775626901Q302.6381231205214 245.4090775626901 308.51718289796395 245.87100368806057Q314.4382359595311 246.29093652930646 321.15716141946535 248.09664774666382Q327.8760868793997 249.86036567989655 334.72099219170775 253.38780154636206Q341.60789078814037 256.91523741282754 347.1510042925862 263.29821659976517Q352.694117797032 269.63920250257814 356.2215536634975 279.0876914306108Q359.748989529963 288.5361803586434 359.748989529963 302.1000111308857L359.748989529963 302.1000111308857L359.748989529963 338.7181548875277Q359.748989529963 352.32397894389464 356.2215536634975 361.77246787192723Q352.694117797032 371.22095679995994 347.1510042925862 377.56194270277285Q341.60789078814037 383.9029286055859 334.72099219170775 387.43036447205145Q327.8760868793997 390.9997936226415 321.15716141946535 392.7635115558743Q314.4382359595311 394.52722948910696 308.51718289796395 394.98915561447745Q302.6381231205214 395.40908845572335 299.2366671064297 395.40908845572335L299.2366671064297 395.40908845572335Q295.835211092338 395.40908845572335 289.87216474664626 394.98915561447745Q283.86712511683 394.52722948910696 276.9382332362727 392.7635115558743Q270.0093413557155 390.9997936226415 262.82848977041067 387.43036447205145Q255.6896314692305 383.9029286055859 249.85256497591257 377.56194270277285Q244.01549848259467 371.22095679995994 240.32008947963078 361.77246787192723Q236.62468047666692 352.32397894389464 236.62468047666692 338.7181548875277L236.62468047666692 338.7181548875277ZM282.10340718359726 295.633045375699L282.10340718359726 349.0485027821767Q282.2713803200956 353.33181776288484 284.16107810570213 356.6072939246028L284.16107810570213 356.6072939246028Q285.7988161865611 359.54682381332407 289.284258768902 361.81446115605183Q292.72770806711833 364.1240917829043 299.2366671064297 364.1240917829043L299.2366671064297 364.1240917829043Q305.45167315686894 364.1240917829043 308.7691426027115 361.81446115605183Q312.08661204855406 359.54682381332407 313.68235684528844 356.6072939246028L313.68235684528844 356.6072939246028Q315.48806806264577 353.33181776288484 315.7820210515179 349.0485027821767L315.7820210515179 349.0485027821767L315.7820210515179 295.633045375699Q315.48806806264577 291.18175725849255 313.68235684528844 287.4863482555287L313.68235684528844 287.4863482555287Q312.08661204855406 284.54681836680743 308.7691426027115 281.94323475108285Q305.45167315686894 279.3816444194829 299.2366671064297 279.3816444194829L299.2366671064297 279.3816444194829Q292.72770806711833 279.3816444194829 289.284258768902 281.94323475108285Q285.7988161865611 284.54681836680743 284.16107810570213 287.4863482555287L284.16107810570213 287.4863482555287Q282.2713803200956 291.18175725849255 282.10340718359726 295.633045375699L282.10340718359726 295.633045375699Z " fill="#ffffff" transform="matrix(0.950424326407642,0,0,0.950424326407642,0,-4.52460167824384)"/><path d="M548.1868373529067 370.4696892745992L548.1868373529067 269.71211351702345Q548.1868373529067 265.1363559412659 548.6716858377551 260.71211351702345Q549.1565343226036 256.2878710927811 550.7928979589673 252.92423472914467Q552.4595646256339 249.56059836550833 555.6413828074521 247.49999230490226Q558.8232009892704 245.40908321399317 564.1565343226036 245.40908321399317L564.1565343226036 245.40908321399317Q569.7019888680582 245.40908321399317 573.0050191710885 247.49999230490226Q576.3080494741189 249.56059836550833 577.9444131104824 252.92423472914467Q579.6110797771491 256.2878710927811 580.0959282619976 260.71211351702345Q580.5807767468461 265.1363559412659 580.5807767468461 269.71211351702345L580.5807767468461 269.71211351702345L580.5807767468461 306.13635594126595Q581.52017068624 302.9545377594477 583.2777464438158 299.74241654732646Q585.0353222013915 296.5605983655083 587.8232009892704 293.9848407897507Q590.5807767468461 291.4393862442962 594.4595646256339 289.8333256382356Q598.3686555347249 288.22726503217496 603.5807767468461 288.22726503217496L603.5807767468461 288.22726503217496Q609.4292615953309 288.22726503217496 615.3080494741189 290.16665897156895Q621.1565343226036 292.0757498806598 625.8535040195734 296.4999923049023Q630.52017068624 300.9242347291447 633.4595646256339 308.10605291096283Q636.3989585650279 315.2878710927811 636.3989585650279 325.9545377594477L636.3989585650279 325.9545377594477L636.3989585650279 356.8333256382356Q636.3989585650279 367.4090832139932 633.4595646256339 374.59090139581133Q630.52017068624 381.7727195776296 625.8535040195734 386.2575680624781Q621.1565343226036 390.71211351702345 615.3080494741189 392.65150745641745Q609.4292615953309 394.5605983655083 603.5807767468461 394.5605983655083L603.5807767468461 394.5605983655083Q598.3686555347249 394.5605983655083 594.4595646256339 392.9242347291447Q590.5807767468461 391.2575680624781 587.8232009892704 388.71211351702345Q585.0353222013915 386.13635594126595 583.2777464438158 382.9545377594477Q581.52017068624 379.74241654732657 580.5807767468461 376.65150745641745L580.5807767468461 376.65150745641745Q580.5807767468461 378.8030226079326 580.1868373529067 381.8939316988417Q579.8232009892704 384.9848407897508 578.2171403832097 387.8030226079326Q576.6413828074521 390.62120442611445 573.3383525044219 392.59090139581133Q570.0353222013915 394.5605983655083 564.1565343226036 394.5605983655083L564.1565343226036 394.5605983655083Q558.3989585650279 394.5605983655083 555.2171403832097 392.4696892745992Q552.0050191710885 390.4090832139932 550.4292615953309 386.9848407897508Q548.8232009892704 383.59090139581133 548.489867655937 379.2878710927811Q548.1868373529067 374.9545377594477 548.1868373529067 370.4696892745992L548.1868373529067 370.4696892745992ZM603.5807767468461 354.0757498806598L603.5807767468461 328.2878710927811Q603.5807767468461 325.5302953352053 603.3686555347249 322.8030226079326Q603.1565343226036 320.10605291096283 602.1868373529067 317.9545377594477Q601.2474434135128 315.8333256382356 599.3686555347249 314.4999923049022Q597.52017068624 313.16665897156895 594.2171403832097 313.16665897156895L594.2171403832097 313.16665897156895Q590.0656252316946 313.16665897156895 587.3989585650279 315.8333256382356Q584.7322918983613 318.4999923049023 583.2474434135128 322.3181741230841Q581.7322918983612 326.16665897156895 581.1565343226036 330.4696892745992Q580.5807767468461 334.8030226079326 580.5807767468461 338.10605291096283L580.5807767468461 338.10605291096283Q580.6716858377551 346.2878710927811 581.2474434135128 352.22726503217496Q581.8535040195734 358.13635594126595 583.3383525044219 362.0151438200538Q584.8232009892704 365.8939316988417 587.4292615953309 367.7727195776296Q590.0656252316946 369.62120442611433 594.2171403832097 369.62120442611433L594.2171403832097 369.62120442611433Q597.52017068624 369.62120442611433 599.3686555347249 368.2878710927811Q601.2474434135128 366.9545377594477 602.1868373529067 364.74241654732646Q603.1565343226036 362.4999923049023 603.3686555347249 359.71211351702345Q603.5807767468461 356.9545377594477 603.5807767468461 354.0757498806598L603.5807767468461 354.0757498806598ZM658.9747161407855 356.62120442611445L658.9747161407855 312.3181741230841Q658.9747161407855 307.74241654732646 659.52017068624 303.3787801836902Q660.0353222013915 298.9848407897507 661.7928979589673 295.59090139581133Q663.550473716543 292.16665897156895 666.8232009892703 290.10605291096283Q670.0656252316945 288.0151438200538 675.6110797771491 288.0151438200538L675.6110797771491 288.0151438200538Q681.0353222013915 288.0151438200538 684.2171403832097 290.10605291096283Q687.4292615953309 292.16665897156895 689.1262312923006 295.59090139581133Q690.8232009892704 298.9848407897507 691.3080494741189 303.3787801836902Q691.7928979589673 307.74241654732646 691.7928979589673 312.3181741230841L691.7928979589673 312.3181741230841L691.7928979589673 353.8636286685386Q691.7928979589673 356.9545377594477 692.0656252316946 359.7727195776296Q692.3383525044219 362.59090139581133 693.2777464438158 364.7727195776296Q694.2474434135128 366.9545377594477 696.0959282619976 368.2878710927811Q697.9747161407854 369.62120442611433 701.1565343226036 369.62120442611433L701.1565343226036 369.62120442611433Q705.4292615953309 369.62120442611433 708.1565343226036 366.74241654732657Q710.8535040195734 363.8636286685386 712.3989585650279 358.8636286685386Q713.9444131104825 353.8636286685386 714.489867655937 347.10605291096294Q715.0050191710885 340.3484771533871 715.0050191710885 332.5605983655083L715.0050191710885 332.5605983655083L715.0050191710885 312.3181741230841Q715.0050191710885 307.74241654732646 715.5504737165431 303.3787801836902Q716.0959282619976 298.9848407897507 717.8535040195734 295.59090139581133Q719.6110797771491 292.16665897156895 722.8535040195734 290.10605291096283Q726.0959282619976 288.0151438200538 731.6413828074521 288.0151438200538L731.6413828074521 288.0151438200538Q737.0656252316946 288.0151438200538 740.2777464438158 290.10605291096283Q743.459564625634 292.16665897156895 745.1565343226036 295.59090139581133Q746.8838070498764 298.9848407897507 747.3383525044219 303.3787801836902Q747.8232009892704 307.74241654732646 747.8232009892704 312.3181741230841L747.8232009892704 312.3181741230841L747.8232009892704 370.4696892745992Q747.8232009892704 375.0757498806598 747.52017068624 379.3787801836902Q747.1868373529067 383.68181048672045 745.5807767468461 387.0454468503568Q744.0050191710885 390.4090832139932 740.7322918983613 392.4696892745992Q737.489867655937 394.5605983655083 731.6413828074521 394.5605983655083L731.6413828074521 394.5605983655083Q725.7625949286643 394.5605983655083 722.459564625634 392.59090139581133Q719.1565343226036 390.62120442611445 717.52017068624 387.8636286685387Q715.8535040195734 385.0757498806598 715.4292615953309 381.9848407897508Q715.0050191710885 378.8939316988417 715.0050191710885 376.65150745641745L715.0050191710885 376.65150745641745Q714.1565343226036 379.74241654732657 712.3383525044219 382.9545377594477Q710.550473716543 386.13635594126595 707.7322918983613 388.71211351702345Q704.8838070498764 391.2575680624781 700.9444131104825 392.9242347291447Q697.0050191710885 394.5605983655083 691.7928979589673 394.5605983655083L691.7928979589673 394.5605983655083Q685.9444131104824 394.5605983655083 680.0656252316946 392.65150745641745Q674.2171403832098 390.71211351702345 669.52017068624 386.2575680624781Q664.8232009892704 381.7727195776296 661.9141100801794 374.5302953352053Q658.9747161407855 367.2878710927811 658.9747161407855 356.62120442611445L658.9747161407855 356.62120442611445ZM775.9444131104824 370.68181048672045L775.9444131104824 269.0757498806598Q775.9444131104824 264.59090139581133 776.429261595331 260.3181741230841Q776.9141100801794 256.0757498806598 778.6110797771491 252.77271957762954Q780.3080494741188 249.46968927459923 783.52017068624 247.43938624429623Q786.7019888680583 245.40908321399317 792.1565343226036 245.40908321399317L792.1565343226036 245.40908321399317Q797.6716858377551 245.40908321399317 800.8838070498764 247.43938624429623Q804.0656252316946 249.46968927459923 805.7322918983612 252.77271957762954Q807.3686555347249 256.0757498806598 807.8535040195734 260.3181741230841Q808.3383525044219 264.59090139581133 808.3383525044219 269.0757498806598L808.3383525044219 269.0757498806598L808.3383525044219 370.68181048672045Q808.3383525044219 375.16665897156895 807.8535040195734 379.4999923049023Q807.3686555347249 383.8030226079326 805.7322918983612 387.16665897156895Q804.0656252316946 390.4999923049022 800.8838070498764 392.5302953352053Q797.6716858377551 394.5605983655083 792.1565343226036 394.5605983655083L792.1565343226036 394.5605983655083Q786.7019888680583 394.5605983655083 783.52017068624 392.5302953352053Q780.3080494741188 390.4999923049022 778.6110797771491 387.16665897156895Q776.9141100801794 383.8030226079326 776.429261595331 379.4999923049023Q775.9444131104824 375.16665897156895 775.9444131104824 370.68181048672045L775.9444131104824 370.68181048672045ZM831.7625949286643 354.4999923049023L831.7625949286643 328.0757498806598Q831.7625949286643 318.2878710927811 834.4292615953309 311.4696892745992Q837.0959282619976 304.65150745641745 841.3080494741189 300.0757498806598Q845.52017068624 295.4696892745992 850.6716858377551 292.9242347291447Q855.8535040195734 290.3787801836901 860.8535040195734 289.10605291096283Q865.8535040195734 287.8030226079326 870.1868373529067 287.4999923049023Q874.489867655937 287.16665897156895 876.9444131104824 287.16665897156895L876.9444131104824 287.16665897156895Q879.3989585650279 287.16665897156895 883.6716858377551 287.4999923049023Q887.9141100801794 287.8030226079326 892.7625949286644 289.10605291096283Q897.6110797771491 290.3787801836901 902.5807767468461 292.9242347291447Q907.52017068624 295.4696892745992 911.5201706862401 300.0757498806598Q915.52017068624 304.65150745641745 918.0656252316946 311.4696892745992Q920.6413828074521 318.2878710927811 920.6413828074521 328.0757498806598L920.6413828074521 328.0757498806598L920.6413828074521 354.4999923049023Q920.6413828074521 364.3181741230841 918.0656252316946 371.13635594126583Q915.52017068624 377.9545377594477 911.5201706862401 382.5302953352053Q907.52017068624 387.10605291096283 902.5807767468461 389.65150745641745Q897.6110797771491 392.22726503217496 892.7625949286644 393.4999923049023Q887.9141100801794 394.7727195776296 883.6716858377551 395.10605291096283Q879.3989585650279 395.4090832139932 876.9444131104824 395.4090832139932L876.9444131104824 395.4090832139932Q874.489867655937 395.4090832139932 870.1868373529067 395.10605291096283Q865.8535040195734 394.7727195776296 860.8535040195734 393.4999923049023Q855.8535040195734 392.22726503217496 850.6716858377551 389.65150745641745Q845.52017068624 387.10605291096283 841.3080494741189 382.5302953352053Q837.0959282619976 377.9545377594477 834.4292615953309 371.13635594126583Q831.7625949286643 364.3181741230841 831.7625949286643 354.4999923049023L831.7625949286643 354.4999923049023ZM864.5807767468461 323.4090832139932L864.5807767468461 361.9545377594477Q864.7019888680582 365.0454468503568 866.0959282619976 367.4090832139932L866.0959282619976 367.4090832139932Q867.2474434135128 369.5302953352053 869.7625949286643 371.16665897156895Q872.2474434135128 372.8333256382356 876.9444131104824 372.8333256382356L876.9444131104824 372.8333256382356Q881.4292615953309 372.8333256382356 883.8232009892704 371.16665897156895Q886.2171403832097 369.5302953352053 887.3989585650279 367.4090832139932L887.3989585650279 367.4090832139932Q888.6716858377551 365.0454468503568 888.8838070498764 361.9545377594477L888.8838070498764 361.9545377594477L888.8838070498764 323.4090832139932Q888.6716858377551 320.19696200187195 887.3989585650279 317.5302953352053L887.3989585650279 317.5302953352053Q886.2171403832097 315.4090832139932 883.8232009892704 313.5302953352053Q881.4292615953309 311.68181048672045 876.9444131104824 311.68181048672045L876.9444131104824 311.68181048672045Q872.2474434135128 311.68181048672045 869.7625949286643 313.5302953352053Q867.2474434135128 315.4090832139932 866.0959282619976 317.5302953352053L866.0959282619976 317.5302953352053Q864.7019888680582 320.19696200187195 864.5807767468461 323.4090832139932L864.5807767468461 323.4090832139932Z " fill="#959525db" transform="matrix(0.950424326407642,0,0,0.950424326407642,0,-4.52460167824384)"/></g></svg>