<?xml version="1.0" encoding="UTF-8"?>
<svg version="1.1" xmlns="http://www.w3.org/2000/svg" width="240" height="300">
<path d="M0 0 C79.2 0 158.4 0 240 0 C240 52.8 240 105.6 240 160 C160.8 160 81.6 160 0 160 C0 107.2 0 54.4 0 0 Z " fill="#DB231E" transform="translate(0,70)"/>
<path d="M0 0 C6.01945235 4.01296824 11.73553587 8.02350334 17.375 12.5 C23.61102729 17.4009923 29.90990029 22.19375935 36.3125 26.875 C43.10163116 31.84054058 49.8214093 36.88674235 56.5 42 C63.89898617 47.66192143 71.35125341 53.24125078 78.86450195 58.75048828 C87.96427889 65.42730447 96.98207853 72.21324287 106 79 C104.88024077 82.35927769 104.26397398 82.80914756 101.484375 84.79296875 C100.73865234 85.33244141 99.99292969 85.87191406 99.22460938 86.42773438 C98.40798828 87.00845703 97.59136719 87.58917969 96.75 88.1875 C95.00402035 89.45018186 93.25927228 90.71456805 91.515625 91.98046875 C90.60619141 92.63966309 89.69675781 93.29885742 88.75976562 93.97802734 C84.28963339 97.25311892 79.89618709 100.62666785 75.5 104 C68.11434591 109.65451428 60.66803429 115.21471736 53.1640625 120.7109375 C47.22328159 125.07277332 41.35260442 129.52071939 35.5 134 C28.56227307 139.30710039 21.59238797 144.56545762 14.5625 149.75 C13.78777344 150.32234375 13.01304688 150.8946875 12.21484375 151.484375 C11.48523437 152.020625 10.755625 152.556875 10.00390625 153.109375 C9.37299072 153.57311523 8.7420752 154.03685547 8.09204102 154.51464844 C5.43498066 156.40116439 2.71137504 158.19241664 0 160 C0 107.2 0 54.4 0 0 Z " fill="#010100" transform="translate(0,70)"/>
<path d="M0 0 C3.91099007 1.49728454 7.62739726 3.25202538 11.3717804 5.12576294 C12.30923852 5.59385118 12.30923852 5.59385118 13.26563519 6.07139575 C15.35162848 7.11357133 17.43618277 8.15859247 19.52075195 9.20361328 C21.01892143 9.9528391 22.51717908 10.70188862 24.01551819 11.45077515 C28.07797361 13.48185945 32.13919134 15.5154073 36.20019174 17.5493989 C40.44623718 19.67554807 44.69341612 21.79943053 48.94047546 23.92355347 C56.98053635 27.94513771 65.01957544 31.96876011 73.05824965 35.99311531 C82.2109689 40.57506435 91.36482458 45.1547408 100.51877654 49.73422647 C119.34711685 59.15362235 138.17402782 68.57587204 157 78 C157 78.66 157 79.32 157 80 C137.22105637 89.93612962 117.43757558 99.86317047 97.64860725 109.77932072 C88.46098439 114.38345811 79.27488714 118.99059218 70.09228516 123.60473633 C62.09156971 127.62498764 54.08808636 131.63966365 46.08118618 135.6475839 C41.83912564 137.77122841 37.59853333 139.89769635 33.36124039 142.03083992 C29.37732901 144.03631593 25.38977499 146.03434647 21.39923477 148.02659798 C19.93123916 148.76114845 18.46462459 149.49846608 16.99947357 150.23867416 C15.00691127 151.24482989 13.00972906 152.24113205 11.01101685 153.23500061 C9.33243182 154.0770585 9.33243182 154.0770585 7.61993599 154.93612766 C6.75535711 155.28720553 5.89077824 155.63828341 5 156 C4.34 155.67 3.68 155.34 3 155 C12.77906157 147.30471099 22.63507537 139.74069593 32.67895508 132.39404297 C38.67440188 127.99994023 44.59806662 123.51876093 50.5 119 C57.8738484 113.3558865 65.30536593 107.80204178 72.79858398 102.31762695 C80.04844139 96.99740678 87.19500193 91.54497553 94.32421875 86.06445312 C95.16726562 85.41798828 96.0103125 84.77152344 96.87890625 84.10546875 C97.6272876 83.52949951 98.37566895 82.95353027 99.14672852 82.36010742 C101 81 101 81 103 80 C103 79.34 103 78.68 103 78 C101.53825674 76.65128674 101.53825674 76.65128674 99.58203125 75.3046875 C98.45861328 74.49064453 98.45861328 74.49064453 97.3125 73.66015625 C96.4875 73.07105469 95.6625 72.48195313 94.8125 71.875 C93.05742772 70.60317002 91.30356404 69.3296709 89.55078125 68.0546875 C88.63506348 67.38920898 87.7193457 66.72373047 86.77587891 66.03808594 C82.30306545 62.75408886 77.90251451 59.37732764 73.5 56 C66.88114578 50.93269613 60.22495261 45.92563418 53.5 41 C45.88491788 35.42239805 38.36575389 29.72834604 30.87329102 23.98730469 C23.99981634 18.73145734 17.05059321 13.58585242 10.0390625 8.515625 C6.42375724 5.88170733 3.0346346 3.3163646 0 0 Z " fill="#FDC826" transform="translate(2,71)"/>
<path d="M0 0 C3.5873524 2.99299816 6.99758934 5.9598845 10.125 9.4375 C11.07375 10.283125 12.0225 11.12875 13 12 C17.31207374 11.71601594 20.952101 9.77021468 24.8125 7.9375 C25.97394531 7.38964844 27.13539062 6.84179688 28.33203125 6.27734375 C29.21246094 5.85582031 30.09289063 5.43429688 31 5 C29.47298664 9.94118472 27.3692288 14.15097558 24.828125 18.6328125 C23.78377889 20.91186325 23.78377889 20.91186325 24.5078125 22.9453125 C26.60319367 25.83057558 29.07010902 28.27940745 31.625 30.75 C32.140625 31.25660156 32.65625 31.76320312 33.1875 32.28515625 C34.45383339 33.52803902 35.7263144 34.76465276 37 36 C34.02977779 36.91145054 31.93514414 37.01801972 28.890625 36.44140625 C28.13652344 36.30283203 27.38242187 36.16425781 26.60546875 36.02148438 C25.82816406 35.87001953 25.05085938 35.71855469 24.25 35.5625 C23.45722656 35.41490234 22.66445313 35.26730469 21.84765625 35.11523438 C19.89702754 34.75096034 17.9483107 34.37647488 16 34 C15.73445313 34.86882812 15.46890625 35.73765625 15.1953125 36.6328125 C14.01952389 39.94500132 12.5922222 42.81386478 10.875 45.875 C10.33617188 46.84179688 9.79734375 47.80859375 9.2421875 48.8046875 C8.83226563 49.52914062 8.42234375 50.25359375 8 51 C7.67 51 7.34 51 7 51 C5.515 41.595 5.515 41.595 4 32 C-5.405 30.515 -5.405 30.515 -15 29 C-15 28.34 -15 27.68 -15 27 C-12.54379149 25.82866942 -10.08525083 24.66278278 -7.625 23.5 C-6.92632812 23.16613281 -6.22765625 22.83226562 -5.5078125 22.48828125 C-0.2265625 20 -0.2265625 20 2 20 C1.855625 19.05898437 1.71125 18.11796875 1.5625 17.1484375 C1.376875 15.90320313 1.19125 14.65796875 1 13.375 C0.814375 12.14523438 0.62875 10.91546875 0.4375 9.6484375 C0.04597484 6.3833973 -0.08080924 3.28287549 0 0 Z " fill="#F9F9F9" transform="translate(28,126)"/>
</svg>
